<svg width="342" height="349" viewBox="0 0 342 349" fill="none" xmlns="http://www.w3.org/2000/svg">
<path d="M314.6 192.652C302.423 193.866 291.407 186.939 286.318 176.121L271.883 177.386L260.985 182.616C258.492 183.809 256.815 186.178 256.433 188.899C255.403 196.236 253.536 203.302 250.94 210.016C250.057 212.291 250.212 214.829 251.41 216.95L255.293 223.855L258.335 223.307C264.027 221.141 270.652 221.661 276.101 225.296C285.338 231.462 287.551 244.153 280.683 253.084C274.77 260.778 263.777 262.892 255.408 257.948C250.077 254.803 246.856 249.58 246.069 243.999L241.858 243.772L234.328 242.858C231.739 242.544 229.166 243.429 227.283 245.221C220.929 251.24 213.752 256.412 205.95 260.552C203.325 261.941 201.641 264.611 201.457 267.559L200.501 282.729L205.237 301.418C213.296 303.656 219.959 310.012 222.15 318.658C225.459 331.729 217.297 344.99 203.987 347.937C191.978 350.6 179.661 343.637 175.844 331.999C172.873 322.915 175.602 313.523 181.882 307.386L177.124 288.588L169.777 276.841C167.807 273.688 164.321 271.823 160.585 271.831C160.563 271.831 160.549 271.831 160.527 271.831C154.092 271.831 147.797 271.194 141.709 270.002C138.083 269.285 134.34 270.426 131.796 273.096L122.089 283.285L111.22 305.711C113.765 310.853 113.993 317.063 111.301 322.629C106.462 332.606 94.123 336.571 84.2617 331.056C75.8197 326.323 72.165 315.878 75.8418 306.955C78.3494 300.869 83.5484 296.802 89.4314 295.442L100.366 272.869L102.514 257.721C102.903 254.927 101.83 252.111 99.6235 250.341C90.9242 243.319 83.4676 234.841 77.6361 225.274C76.1874 222.897 73.5842 221.456 70.7898 221.434L55.5825 221.288L54.4404 218.742C53.2712 229.041 46.1823 238.191 35.6077 241.498C21.4004 245.945 6.26661 238.177 1.65586 224.133C-2.95488 210.097 4.83264 194.744 18.9296 190.106C28.7982 186.859 39.1669 189.558 46.1823 196.192L63.8531 190.662L61.2522 189.265C63.1715 187.912 64.1936 185.644 64.0024 183.318C63.7892 180.736 63.6789 178.133 63.6789 175.499C63.6789 161.192 66.8409 147.609 72.4885 135.394C73.3121 133.602 73.2901 131.54 72.4224 129.769L68.5984 121.994L58.2224 114.204C52.4131 116.055 45.8315 115.17 40.5957 111.242C31.7125 104.571 30.2124 91.7782 37.566 83.2422C43.8975 75.8912 54.9942 74.3844 63.0759 79.7825C68.2234 83.2203 71.1502 88.6037 71.6208 94.2212L83.1219 102.852L94.7113 104.908C103.146 97.1177 112.978 90.8053 123.78 86.3801L126.501 69.9372L123.067 52.9531C112.904 50.3491 104.653 42.6031 102.433 32.2751C99.3 17.6828 109.382 3.47083 124.957 0.537741C140.525 -2.39535 155.688 7.0476 158.821 21.6399C161.166 32.5604 156.114 43.2614 146.893 49.1861L150.136 65.2048L158.1 77.8441C158.622 78.6707 159.534 79.1681 160.512 79.1681C178.764 79.1681 195.839 84.215 210.421 92.9777C211.223 93.4532 212.208 93.519 213.054 93.124L225.526 87.3749L240.086 71.7073C239.211 66.0898 240.821 60.1359 245.005 55.6375C252.565 47.5111 265.507 47.3063 273.317 55.4327C280.163 62.5643 280.428 73.9382 273.927 81.3843C269.721 86.2046 263.684 88.4281 257.786 87.9893L243.226 103.657L238.497 116.311C238.166 117.189 238.314 118.169 238.865 118.929C244.608 126.77 249.19 135.504 252.352 144.881C253.227 147.456 255.286 149.46 257.918 150.199L269.758 153.497L285.142 152.144C288.914 141.326 298.334 133.141 309.901 131.986C325.807 130.398 339.757 142.694 341.052 159.444C342.353 176.194 330.506 191.064 314.6 192.652Z" fill="#EB5569"/>
</svg>
